<svg width="241" height="78" viewBox="0 0 241 78" fill="none" xmlns="http://www.w3.org/2000/svg">
<path d="M0 0V78H78V0H0ZM3.24919 3.33271H74.7484V74.6648H3.24919V3.33271ZM27.0538 44.1703L24.4774 54.1585C24.4262 54.446 24.3238 54.496 24.0069 54.496H19.2343C18.9052 54.496 18.8541 54.391 18.9053 54.0135L28.1336 20.8613C28.2994 20.2613 28.3993 19.7288 28.4505 18.0737C28.4505 17.8511 28.5651 17.7486 28.7308 17.7486H35.5363C35.7533 17.7486 35.8654 17.8011 35.9166 18.0737L46.2637 54.066C46.3271 54.3385 46.2638 54.496 45.9981 54.496H40.6404C40.3601 54.496 40.209 54.431 40.1578 54.2085L37.4668 44.1678H27.0441L27.0538 44.1703ZM36.1189 38.7525C35.2048 35.0672 33.0598 26.9942 32.2603 23.0865H32.1969C31.512 26.9792 29.7838 33.5822 28.4529 38.7525H36.1189ZM50.7439 20.2238C50.7439 18.0762 52.1918 16.8111 54.0711 16.8111C56.0528 16.8111 57.3983 18.1912 57.3983 20.2238C57.3983 22.4239 56.0016 23.6365 54.0077 23.6365C52.065 23.6365 50.7317 22.4264 50.7317 20.2238H50.7439ZM51.1119 27.8018C51.1119 27.5418 51.2143 27.4368 51.48 27.4368H56.5841C56.8766 27.4368 56.9766 27.5418 56.9766 27.8268V54.1435C56.9766 54.416 56.9254 54.521 56.5963 54.521H51.5678C51.2387 54.521 51.1363 54.3635 51.1363 54.091V27.7993L51.1119 27.8018Z" fill="#A41818"/>
<circle cx="149" cy="30" r="10" fill="black"/>
<ellipse cx="169.5" cy="30" rx="10.5" ry="10" fill="black"/>
<circle cx="190" cy="30" r="10" fill="black"/>
<ellipse cx="210.5" cy="30" rx="10.5" ry="10" fill="black" fill-opacity="0.2"/>
<circle cx="231" cy="30" r="10" fill="black" fill-opacity="0.2"/>
</svg>
