<svg width="50" height="50" viewBox="0 0 50 50" fill="none" xmlns="http://www.w3.org/2000/svg">
<path d="M32.6454 3.30743H45.122V8.12911H32.6454V3.30743ZM20.1438 22.3849C22.9018 20.2829 24.3465 17.0851 24.3465 12.1439C24.3465 2.37099 19.7811 0 14.5091 0H0V49.0536H14.9156C20.5066 49.0536 25.7536 44.7699 25.7536 34.8077C25.7536 28.6511 23.9275 24.0984 20.1438 22.3849ZM6.76673 8.3682H13.1144C15.5597 8.3682 17.7548 9.45407 17.7548 13.9769C17.7548 18.1411 16.0475 19.8147 13.6273 19.8147H6.76673V8.3682ZM13.99 40.7252H6.76048V27.2166H14.1338C17.1107 27.2166 18.9931 29.199 18.9931 34.22C18.9931 39.1612 16.748 40.7252 13.99 40.7252ZM50 31.8091C50 21.2991 46.1413 12.5423 39.162 12.5423C32.3765 12.5423 27.7611 20.6814 27.7611 31.3509C27.7611 42.4088 32.1326 50 39.162 50C44.4841 50 47.93 46.1845 49.5872 38.0454H44.1901C43.6022 41.0839 41.2133 42.6778 39.3558 42.6778C35.7661 42.6778 33.8899 39.3305 33.8899 33.6422H49.9562C49.975 33.0544 50 32.4367 50 31.8091ZM33.8899 27.4856C34.0838 22.8133 36.0413 19.8944 38.9681 19.8944C42.045 19.8944 43.5835 22.7735 43.8524 27.4856H33.8899Z" fill="black"/>
</svg>
