<svg width="60" height="60" viewBox="0 0 60 60" fill="none" xmlns="http://www.w3.org/2000/svg">
<path d="M27.8925 29.9999C27.8925 33.0323 26.6879 35.9405 24.5436 38.0848C22.3994 40.229 19.4912 41.4337 16.4587 41.4337C13.4263 41.4337 10.5181 40.229 8.37386 38.0848C6.22962 35.9405 5.02499 33.0323 5.02499 29.9999C5.02499 26.9675 6.22962 24.0593 8.37386 21.915C10.5181 19.7708 13.4263 18.5662 16.4587 18.5662C19.4912 18.5662 22.3994 19.7708 24.5436 21.915C26.6879 24.0593 27.8925 26.9675 27.8925 29.9999ZM54.975 29.9999C54.975 33.0323 53.7704 35.9405 51.6261 38.0848C49.4819 40.229 46.5737 41.4337 43.5412 41.4337C40.5088 41.4337 37.6006 40.229 35.4564 38.0848C33.3121 35.9405 32.1075 33.0323 32.1075 29.9999C32.1075 26.9675 33.3121 24.0593 35.4564 21.915C37.6006 19.7708 40.5088 18.5662 43.5412 18.5662C46.5737 18.5662 49.4819 19.7708 51.6261 21.915C53.7704 24.0593 54.975 26.9675 54.975 29.9999Z" fill="black"/>
</svg>
