<svg width="60" height="60" viewBox="0 0 60 60" fill="none" xmlns="http://www.w3.org/2000/svg">
<path d="M60 11.25V48.75C60 50.8781 58.3781 52.5 56.25 52.5H52.5V18.4669L30 34.6294L7.5 18.4669V52.5H3.75C1.62188 52.5 0 50.8781 0 48.75V11.25C0 10.185 0.40125 9.24748 1.07438 8.58373C1.42495 8.23297 1.84247 7.95628 2.30211 7.7701C2.76176 7.58392 3.25414 7.49206 3.75 7.49998H5.00063L30 25.6256L54.9994 7.49998H56.25C57.315 7.49998 58.2525 7.90123 58.9256 8.58373C59.5988 9.24748 60 10.185 60 11.25Z" fill="black"/>
</svg>
