<svg width="241" height="78" viewBox="0 0 241 78" fill="none" xmlns="http://www.w3.org/2000/svg">
<path d="M0 0V78H78V0H0ZM3.24919 3.33532H74.7484V74.6697H3.24919V3.33532ZM28.5114 54.0702C28.5114 54.3927 28.4627 54.4977 28.0946 54.4977H23.0904C22.776 54.4977 22.6736 54.3452 22.6736 54.0702V18.2693C22.6736 17.9467 22.8223 17.8267 23.0904 17.8267H28.1434C28.4091 17.8267 28.5114 17.9467 28.5114 18.2193V54.0702ZM34.2786 41.1515C34.2786 33.1807 39.3949 26.9701 47.6068 26.9701C48.2918 26.9701 48.6769 26.9701 49.3228 27.0076V18.1667C49.3208 18.123 49.3275 18.0794 49.3424 18.0383C49.3573 17.9973 49.3801 17.9598 49.4094 17.9281C49.4388 17.8963 49.4741 17.871 49.5133 17.8535C49.5524 17.8361 49.5946 17.827 49.6373 17.8267H54.9193C55.1996 17.8267 55.2508 17.9467 55.2508 18.1142V49.3047C55.2508 50.2273 55.2508 51.3874 55.4166 52.6526C55.4166 52.8726 55.3508 52.9251 55.1363 53.0426C52.4709 54.3436 49.5567 55.02 46.605 55.0228C39.4071 55.0228 34.2639 50.4524 34.2639 41.154L34.2786 41.1515ZM49.3228 32.4106C48.8378 32.1906 48.1918 32.0731 47.3923 32.0731C43.2169 32.0731 40.2846 35.3659 40.2846 40.8739C40.2846 47.152 43.2656 49.6773 47.0242 49.6773C47.8237 49.6773 48.6842 49.5748 49.3228 49.2872V32.4106Z" fill="#DE3352"/>
<circle cx="149" cy="29" r="10" fill="black"/>
<ellipse cx="169.5" cy="29" rx="10.5" ry="10" fill="black"/>
<circle cx="190" cy="29" r="10" fill="black" fill-opacity="0.2"/>
<ellipse cx="210.5" cy="29" rx="10.5" ry="10" fill="black" fill-opacity="0.2"/>
<circle cx="231" cy="29" r="10" fill="black" fill-opacity="0.2"/>
</svg>
