<svg width="60" height="60" viewBox="0 0 60 60" fill="none" xmlns="http://www.w3.org/2000/svg">
<path d="M30 17.9825C23.3496 17.9825 17.9824 23.3496 17.9824 30C17.9824 36.6504 23.3496 42.0176 30 42.0176C36.6504 42.0176 42.0176 36.6504 42.0176 30C42.0176 23.3496 36.6504 17.9825 30 17.9825ZM30 37.8106C25.6992 37.8106 22.1895 34.3008 22.1895 30C22.1895 25.6993 25.6992 22.1895 30 22.1895C34.3008 22.1895 37.8106 25.6993 37.8106 30C37.8106 34.3008 34.3008 37.8106 30 37.8106ZM42.5098 14.6895C40.957 14.6895 39.7031 15.9434 39.7031 17.4961C39.7031 19.0489 40.957 20.3028 42.5098 20.3028C44.0625 20.3028 45.3164 19.0547 45.3164 17.4961C45.3169 17.1274 45.2446 16.7623 45.1037 16.4215C44.9628 16.0808 44.7561 15.7712 44.4954 15.5105C44.2347 15.2498 43.9251 15.0431 43.5844 14.9022C43.2436 14.7613 42.8785 14.689 42.5098 14.6895ZM53.4258 30C53.4258 26.7657 53.4551 23.5606 53.2734 20.3321C53.0918 16.5821 52.2363 13.2539 49.4941 10.5118C46.7461 7.76371 43.4238 6.9141 39.6738 6.73246C36.4395 6.55082 33.2344 6.58011 30.0059 6.58011C26.7715 6.58011 23.5664 6.55082 20.3379 6.73246C16.5879 6.9141 13.2598 7.76956 10.5176 10.5118C7.76953 13.2598 6.91993 16.5821 6.73828 20.3321C6.55664 23.5664 6.58594 26.7715 6.58594 30C6.58594 33.2285 6.55664 36.4395 6.73828 39.668C6.91993 43.418 7.77539 46.7461 10.5176 49.4883C13.2656 52.2364 16.5879 53.086 20.3379 53.2676C23.5723 53.4492 26.7773 53.42 30.0059 53.42C33.2402 53.42 36.4453 53.4492 39.6738 53.2676C43.4238 53.086 46.752 52.2305 49.4941 49.4883C52.2422 46.7403 53.0918 43.418 53.2734 39.668C53.4609 36.4395 53.4258 33.2344 53.4258 30ZM48.2695 43.8164C47.8418 44.8828 47.3262 45.6797 46.5 46.5C45.6738 47.3262 44.8828 47.8418 43.8164 48.2696C40.7344 49.4942 33.416 49.2188 30 49.2188C26.584 49.2188 19.2598 49.4942 16.1777 48.2754C15.1113 47.8477 14.3145 47.3321 13.4941 46.5059C12.668 45.6797 12.1523 44.8887 11.7246 43.8223C10.5059 40.7344 10.7813 33.416 10.7813 30C10.7813 26.584 10.5059 19.2598 11.7246 16.1778C12.1523 15.1114 12.668 14.3145 13.4941 13.4942C14.3203 12.6739 15.1113 12.1524 16.1777 11.7246C19.2598 10.5059 26.584 10.7813 30 10.7813C33.416 10.7813 40.7402 10.5059 43.8223 11.7246C44.8887 12.1524 45.6856 12.668 46.5059 13.4942C47.332 14.3203 47.8477 15.1114 48.2754 16.1778C49.4941 19.2598 49.2188 26.584 49.2188 30C49.2188 33.416 49.4941 40.7344 48.2695 43.8164Z" fill="black"/>
</svg>
