<svg width="241" height="78" viewBox="0 0 241 78" fill="none" xmlns="http://www.w3.org/2000/svg">
<path d="M0 0.977539V77.0227H78V0.977539H0ZM3.24919 4.22673H74.7484V73.771H3.24919V4.22673ZM18.8516 18.7884C18.8516 18.5714 19.3099 18.4081 19.5756 18.4081C22.3673 18.29 25.1614 18.2347 27.9557 18.2424C36.9696 18.2424 40.4723 23.1807 40.4723 29.5036C40.4723 37.7692 34.4809 41.3109 27.1416 41.3109C25.8984 41.3109 25.4792 41.2475 24.6163 41.2475V53.7397C24.6163 54.0054 24.5139 54.1199 24.2482 54.1199H19.2197C18.954 54.1199 18.8516 54.0175 18.8516 53.7519V18.7884ZM24.6163 36.0556C25.3646 36.1068 25.9618 36.1068 27.2561 36.1068C31.0513 36.1068 34.632 34.7613 34.632 29.6206C34.632 25.4939 32.0678 23.4001 27.7266 23.4001C26.4444 23.4001 25.2135 23.4513 24.6163 23.5025V36.0556ZM52.5964 32.1824C50.0199 32.1824 49.1571 33.4767 49.1571 34.5444C49.1571 35.7241 49.7421 36.526 53.1814 38.303C58.2733 40.7795 59.8845 43.1268 59.8845 46.6173C59.8845 51.8092 55.9114 54.6025 50.5537 54.6025C47.7092 54.6025 45.2863 54.0054 43.8896 53.2059C43.6873 53.1035 43.6361 52.9402 43.6361 52.672V47.8994C43.6361 47.5825 43.7897 47.468 44.0042 47.6337C45.9495 48.8986 48.2212 49.5694 50.5416 49.5642C53.118 49.5642 54.1856 48.4966 54.1856 47.039C54.1856 45.8592 53.4373 44.8428 50.1735 43.1292C45.552 40.9209 43.6215 38.6735 43.6215 34.9149C43.6215 30.7248 46.8975 27.2465 52.572 27.2465C55.3654 27.2465 57.3324 27.6779 58.4123 28.1484C58.6779 28.3141 58.7291 28.5798 58.7291 28.7967V33.2525C58.7291 33.5182 58.5634 33.6839 58.2465 33.5694C56.7986 32.7187 54.6658 32.1727 52.5842 32.1727L52.5964 32.1824Z" fill="#1B41C9"/>
<circle cx="149" cy="31" r="10" fill="black"/>
<ellipse cx="169.5" cy="31" rx="10.5" ry="10" fill="black"/>
<circle cx="190" cy="31" r="10" fill="black" fill-opacity="0.2"/>
<ellipse cx="210.5" cy="31" rx="10.5" ry="10" fill="black" fill-opacity="0.2"/>
<circle cx="231" cy="31" r="10" fill="black" fill-opacity="0.2"/>
</svg>
