<svg width="60" height="76" viewBox="0 0 60 76" fill="none" xmlns="http://www.w3.org/2000/svg">
<path d="M54.375 18.8739C52.582 19.8535 50.6309 20.5586 48.6211 20.8332C50.7077 19.263 52.2703 16.7824 53.0156 13.8567C51.0576 15.3321 48.9126 16.3666 46.6758 16.9145C45.7409 15.6485 44.6102 14.64 43.3541 13.9517C42.0981 13.2635 40.7435 12.9103 39.375 12.9141C33.8379 12.9141 29.3848 18.5992 29.3848 25.5758C29.3848 26.5555 29.4785 27.5352 29.6309 28.4778C21.3398 27.9285 13.9453 22.9114 9.0293 15.2297C8.13355 17.1677 7.66414 19.3743 7.66992 21.62C7.66992 26.0137 9.43359 29.8879 12.123 32.1664C10.5381 32.0874 8.99029 31.5356 7.60547 30.5559V30.7117C7.60547 36.8645 11.0391 41.9633 15.6152 43.136C14.756 43.4187 13.8721 43.5633 12.9844 43.5664C12.334 43.5664 11.7187 43.4848 11.0977 43.3735C12.3633 48.3907 16.0488 52.0348 20.4375 52.1535C17.0039 55.5602 12.7031 57.5641 8.0332 57.5641C7.19531 57.5641 6.42188 57.527 5.61914 57.4082C10.0488 61.0078 15.3047 63.086 20.9648 63.086C39.3398 63.086 49.3945 43.8039 49.3945 27.0676C49.3945 26.5184 49.3945 25.9692 49.3652 25.42C51.3105 23.6164 53.0156 21.3825 54.375 18.8739Z" fill="black"/>
</svg>
