<svg width="60" height="60" viewBox="0 0 60 60" fill="none" xmlns="http://www.w3.org/2000/svg">
<g clip-path="url(#clip0_5_337)">
<path d="M51.0037 8.72268C48.253 5.94647 44.9773 3.74548 41.3674 2.24795C37.7575 0.750432 33.8857 -0.013666 29.9775 0.000184989C13.6012 0.000184989 0.255 13.3427 0.24 29.7227C0.24 34.9689 1.6125 40.0727 4.20375 44.5914L0 60.0002L15.765 55.8677C20.1263 58.2411 25.0122 59.4852 29.9775 59.4864H29.9925C46.3725 59.4864 59.715 46.1439 59.73 29.7489C59.7337 25.8416 58.9643 21.9721 57.466 18.3635C55.9677 14.7548 53.7702 11.4783 51 8.72268H51.0037ZM29.9775 54.4539C25.5487 54.4554 21.2014 53.2637 17.3925 51.0039L16.4925 50.4639L7.14 52.9164L9.6375 43.7927L9.0525 42.8514C6.57678 38.9152 5.26743 34.3578 5.27625 29.7077C5.27625 16.1102 16.365 5.01769 29.9925 5.01769C33.239 5.01186 36.4546 5.64871 39.4538 6.89153C42.4531 8.13434 45.1766 9.95853 47.4675 12.2589C49.7664 14.5504 51.5888 17.2743 52.8297 20.2736C54.0706 23.2728 54.7054 26.4881 54.6975 29.7339C54.6825 43.3802 43.5938 54.4539 29.9775 54.4539ZM43.5338 35.9514C42.795 35.5802 39.1462 33.7839 38.46 33.5289C37.7775 33.2852 37.2788 33.1577 36.7912 33.9002C36.2925 34.6389 34.8675 36.3227 34.44 36.8064C34.0125 37.3052 33.57 37.3614 32.8275 36.9939C32.0887 36.6189 29.6925 35.8389 26.8575 33.3002C24.645 31.3314 23.1637 28.8939 22.7213 28.1552C22.2938 27.4127 22.68 27.0152 23.0512 26.6439C23.3775 26.3139 23.79 25.7739 24.1612 25.3464C24.5362 24.9189 24.66 24.6039 24.9037 24.1089C25.1475 23.6064 25.0312 23.1789 24.8475 22.8077C24.66 22.4364 23.1787 18.7727 22.5525 17.2952C21.9525 15.8364 21.3412 16.0389 20.8837 16.0202C20.4562 15.9939 19.9575 15.9939 19.4587 15.9939C19.0821 16.0033 18.7115 16.0904 18.3701 16.2498C18.0287 16.4092 17.724 16.6374 17.475 16.9202C16.7925 17.6627 14.8837 19.4589 14.8837 23.1227C14.8837 26.7864 17.5462 30.3077 17.9212 30.8064C18.2887 31.3052 23.1487 38.8014 30.6075 42.0264C32.37 42.7952 33.7575 43.2489 34.8413 43.5939C36.6225 44.1639 38.2312 44.0777 39.5137 43.8939C40.9387 43.6764 43.905 42.0939 44.5312 40.3577C45.1463 38.6177 45.1463 37.1327 44.9588 36.8214C44.775 36.5064 44.2762 36.3227 43.5338 35.9514Z" fill="black"/>
</g>
<defs>
<clipPath id="clip0_5_337">
<rect width="60" height="60" fill="white"/>
</clipPath>
</defs>
</svg>
